<svg width="48" height="48" viewBox="0 0 48 48" fill="none" xmlns="http://www.w3.org/2000/svg">
<path d="M41.3333 10.6667H29.3333V44H44V13.3333C44 12.6261 43.719 11.9478 43.2189 11.4477C42.7188 10.9476 42.0406 10.6667 41.3333 10.6667V10.6667ZM34.6666 33.3333H32V30.6667H34.6666V33.3333ZM34.6666 26.6667H32V24H34.6666V26.6667ZM34.6666 20H32V17.3333H34.6666V20ZM40 33.3333H37.3333V30.6667H40V33.3333ZM40 26.6667H37.3333V24H40V26.6667ZM40 20H37.3333V17.3333H40V20Z" fill="#45465A"/>
<path d="M23.84 4H8.15998C7.4103 4 6.69133 4.29781 6.16122 4.82791C5.63112 5.35801 5.33331 6.07699 5.33331 6.82667V44H12V40H20V44H26.6666V6.82667C26.6666 6.07699 26.3688 5.35801 25.8387 4.82791C25.3086 4.29781 24.5897 4 23.84 4V4ZM12 33.3333H9.33331V30.6667H12V33.3333ZM12 26.6667H9.33331V24H12V26.6667ZM12 20H9.33331V17.3333H12V20ZM12 13.3333H9.33331V10.6667H12V13.3333ZM17.3333 33.3333H14.6666V30.6667H17.3333V33.3333ZM17.3333 26.6667H14.6666V24H17.3333V26.6667ZM17.3333 20H14.6666V17.3333H17.3333V20ZM17.3333 13.3333H14.6666V10.6667H17.3333V13.3333ZM22.6666 33.3333H20V30.6667H22.6666V33.3333ZM22.6666 26.6667H20V24H22.6666V26.6667ZM22.6666 20H20V17.3333H22.6666V20ZM22.6666 13.3333H20V10.6667H22.6666V13.3333Z" fill="#45465A"/>
</svg>
