<svg width="24" height="24" viewBox="0 0 24 24" fill="none" xmlns="http://www.w3.org/2000/svg">
<path d="M20.0617 18.6975C21.1388 17.4016 21.888 15.8653 22.2458 14.2186C22.6035 12.572 22.5595 10.8633 22.1173 9.23731C21.675 7.61128 20.8477 6.11567 19.7052 4.87701C18.5628 3.63834 17.1388 2.69306 15.5537 2.12114C13.9686 1.54921 12.2691 1.36746 10.599 1.59126C8.9288 1.81506 7.33711 2.43783 5.95853 3.40688C4.57996 4.37593 3.45505 5.66276 2.67899 7.1585C1.90292 8.65425 1.49852 10.3149 1.5 12C1.50056 14.4496 2.36381 16.8208 3.93825 18.6975L3.92325 18.7102C3.97575 18.7732 4.03575 18.8272 4.08975 18.8895C4.15725 18.9667 4.23 19.0395 4.29975 19.1145C4.50975 19.3425 4.72575 19.5615 4.95225 19.767C5.02125 19.83 5.0925 19.8885 5.16225 19.9485C5.40225 20.1555 5.649 20.352 5.90475 20.535C5.93775 20.5575 5.96775 20.5867 6.00075 20.61V20.601C7.75732 21.8371 9.85282 22.5005 12.0007 22.5005C14.1487 22.5005 16.2442 21.8371 18.0007 20.601V20.61C18.0337 20.5867 18.063 20.5575 18.0967 20.535C18.3517 20.3512 18.5992 20.1555 18.8392 19.9485C18.909 19.8885 18.9802 19.8292 19.0492 19.767C19.2757 19.5607 19.4917 19.3425 19.7017 19.1145C19.7715 19.0395 19.8435 18.9667 19.9117 18.8895C19.965 18.8272 20.0257 18.7732 20.0782 18.7095L20.0617 18.6975ZM12 6C12.6675 6 13.32 6.19794 13.875 6.56879C14.4301 6.93964 14.8626 7.46674 15.1181 8.08344C15.3735 8.70014 15.4404 9.37874 15.3101 10.0334C15.1799 10.6881 14.8585 11.2895 14.3865 11.7615C13.9145 12.2335 13.3131 12.5549 12.6584 12.6851C12.0037 12.8154 11.3251 12.7485 10.7084 12.4931C10.0917 12.2376 9.56464 11.8051 9.19379 11.25C8.82294 10.695 8.625 10.0425 8.625 9.375C8.625 8.47989 8.98058 7.62145 9.61351 6.98851C10.2464 6.35558 11.1049 6 12 6ZM6.00525 18.6975C6.01826 17.7127 6.41846 16.7727 7.11927 16.0807C7.82007 15.3887 8.76514 15.0005 9.75 15H14.25C15.2349 15.0005 16.1799 15.3887 16.8807 16.0807C17.5815 16.7727 17.9817 17.7127 17.9947 18.6975C16.3499 20.1797 14.2142 21.0001 12 21.0001C9.7858 21.0001 7.65012 20.1797 6.00525 18.6975Z" fill="#45465A"/>
</svg>
